<svg width="78" height="78" viewBox="0 0 78 78" fill="none" xmlns="http://www.w3.org/2000/svg">
<mask id="mask0_296_1040" style="mask-type:alpha" maskUnits="userSpaceOnUse" x="0" y="0" width="78" height="78">
<rect width="78" height="78" fill="#D9D9D9"/>
</mask>
<g mask="url(#mask0_296_1040)">
<path d="M20.5814 63.3754C16.2107 63.3754 12.5003 61.8452 9.45019 58.7848C6.40006 55.7244 4.875 52.0088 4.875 47.6381C4.875 43.6628 6.20831 40.1658 8.87494 37.1471C11.5416 34.1284 14.8666 32.4295 18.85 32.0503C19.6836 27.0047 22.0055 22.8474 25.8156 19.5784C29.6262 16.31 34.0649 14.6758 39.1316 14.6758C44.8023 14.6758 49.598 16.7268 53.5186 20.8288C57.4397 24.9309 59.4003 29.8609 59.4003 35.6188V38.6941H60.3996C63.9459 38.5652 66.9532 39.684 69.4216 42.0505C71.8905 44.4171 73.125 47.4065 73.125 51.0189C73.125 54.4022 71.9114 57.3074 69.4842 59.7346C67.057 62.1618 64.1518 63.3754 60.7685 63.3754H40.8436V37.7882L46.7253 43.669C47.0876 44.0525 47.5155 44.2443 48.009 44.2443C48.503 44.2443 48.9312 44.0631 49.2936 43.7007C49.6559 43.3378 49.8371 42.8961 49.8371 42.3755C49.8371 41.8545 49.6559 41.4127 49.2936 41.0503L40.6437 32.3501C40.1773 31.8837 39.6294 31.6505 39 31.6505C38.3706 31.6505 37.8227 31.8837 37.3563 32.3501L28.6561 41.0503C28.2937 41.4127 28.1209 41.8461 28.1377 42.3503C28.1545 42.8546 28.3441 43.2777 28.7064 43.6195C29.0688 44.0024 29.5157 44.1836 30.0471 44.163C30.5784 44.1419 31.0253 43.9502 31.3877 43.5878L37.1564 37.7882V63.3754H20.5814Z" fill="#1C1B1F"/>
<path d="M20.5814 63.3754C16.2107 63.3754 12.5003 61.8452 9.45019 58.7848C6.40006 55.7244 4.875 52.0088 4.875 47.6381C4.875 43.6628 6.20831 40.1658 8.87494 37.1471C11.5416 34.1284 14.8666 32.4295 18.85 32.0503C19.6836 27.0047 22.0055 22.8474 25.8156 19.5784C29.6262 16.31 34.0649 14.6758 39.1316 14.6758C44.8023 14.6758 49.598 16.7268 53.5186 20.8288C57.4397 24.9309 59.4003 29.8609 59.4003 35.6188V38.6941H60.3996C63.9459 38.5652 66.9532 39.684 69.4216 42.0505C71.8905 44.4171 73.125 47.4065 73.125 51.0189C73.125 54.4022 71.9114 57.3074 69.4842 59.7346C67.057 62.1618 64.1518 63.3754 60.7685 63.3754H40.8436V37.7882L46.7253 43.669C47.0876 44.0525 47.5155 44.2443 48.009 44.2443C48.503 44.2443 48.9312 44.0631 49.2936 43.7007C49.6559 43.3378 49.8371 42.8961 49.8371 42.3755C49.8371 41.8545 49.6559 41.4127 49.2936 41.0503L40.6437 32.3501C40.1773 31.8837 39.6294 31.6505 39 31.6505C38.3706 31.6505 37.8227 31.8837 37.3563 32.3501L28.6561 41.0503C28.2937 41.4127 28.1209 41.8461 28.1377 42.3503C28.1545 42.8546 28.3441 43.2777 28.7064 43.6195C29.0688 44.0024 29.5157 44.1836 30.0471 44.163C30.5784 44.1419 31.0253 43.9502 31.3877 43.5878L37.1564 37.7882V63.3754H20.5814Z" fill="url(#paint0_linear_296_1040)"/>
</g>
<defs>
<linearGradient id="paint0_linear_296_1040" x1="4.875" y1="39.0256" x2="73.125" y2="39.0256" gradientUnits="userSpaceOnUse">
<stop stop-color="#25A1F4"/>
<stop offset="1" stop-color="#332673"/>
</linearGradient>
</defs>
</svg>
